PathFileType	4	(X/Y/Z)	Walk2.trc
DataRate	CameraRate	NumFrames	NumMarkers	Units	OrigDataRate	OrigDataStartFrame	OrigNumFrames
200.000000	200.000000	7	59	mm	200.000000	452	574
Frame#	Times		RFHD		CLAV		STRN		LASI		RASI		RACR1		RUA1		RElbow		RFA1		RWRU		LACR1		LUA1		LFA1		LCAR		RTH1		RTH2		LTH3		LTH2		LTH4		LLFC		LTB1		LTB3		LTB4		LLMAL		LMT1		LToe		RTH3		LTH1		LFHD		C7		RCAR		RTH4		LWRR		RLFC		LTB2		RBack		RPSI		LMT5		LMMAL		RBHD		T10		LPSI		LElbow		RTB1		LWRU		RTB2		RCAL		RMMAL		RTB4		RToe		RMT1		RTB3		RWRR		LElbowM		LBHD		RElbowM		RMT5		RLMAL		LCAL
			X1	Y1	Z1	X2	Y2	Z2	X3	Y3	Z3	X4	Y4	Z4	X5	Y5	Z5	X6	Y6	Z6	X7	Y7	Z7	X8	Y8	Z8	X9	Y9	Z9	X10	Y10	Z10	X11	Y11	Z11	X12	Y12	Z12	X13	Y13	Z13	X14	Y14	Z14	X15	Y15	Z15	X16	Y16	Z16	X17	Y17	Z17	X18	Y18	Z18	X19	Y19	Z19	X20	Y20	Z20	X21	Y21	Z21	X22	Y22	Z22	X23	Y23	Z23	X24	Y24	Z24	X25	Y25	Z25	X26	Y26	Z26	X27	Y27	Z27	X28	Y28	Z28	X29	Y29	Z29	X30	Y30	Z30	X31	Y31	Z31	X32	Y32	Z32	X33	Y33	Z33	X34	Y34	Z34	X35	Y35	Z35	X36	Y36	Z36	X37	Y37	Z37	X38	Y38	Z38	X39	Y39	Z39	X40	Y40	Z40	X41	Y41	Z41	X42	Y42	Z42	X43	Y43	Z43	X44	Y44	Z44	X45	Y45	Z45	X46	Y46	Z46	X47	Y47	Z47	X48	Y48	Z48	X49	Y49	Z49	X50	Y50	Z50	X51	Y51	Z51	X52	Y52	Z52	X53	Y53	Z53	X54	Y54	Z54	X55	Y55	Z55	X56	Y56	Z56	X57	Y57	Z57	X58	Y58	Z58	X59	Y59	Z59

452	2.26	456.48	1570.6	58.225	389.82	1337.4	13.01	467.18	1115.2	13.67	413.49	938.1	-116.64	422.01	942.11	158.79	347.53	1349.5	188.94	356.75	1139.1	252.14	357.77	1031	276.62	458.39	913.9	260.34	468.66	801.22	267.59	317.12	1351.8	-152.55	268.18	1147.7	-196.55	281.08	907.45	-229.09	290.63	746.74	-238.26	317.76	738.62	194.03	372.82	651.34	139.43	420.27	561.06	-129.77	451.43	670.03	-108.66	388.02	643.74	-144.84	448.21	460.73	-113.8	516.82	378.18	-45.258	551.31	193.68	-48.684	535.85	284.71	-51.073	538.43	70.014	-88.976	691.63	85.917	-72.085	721.68	93.053	-102.06	298.07	555.65	148.83	354.65	734.68	-154.97	450.18	1567.6	-14.54	266.5	1417.3	24.845	526.28	781.51	254.82	307.24	646.73	168.87	303.21	789.91	-196.56	273.49	451.23	132.74	497.77	280.31	-112.52	225.97	1310.8	124.76	208.34	975.45	88.582	651.94	52.374	-127.95	562.04	92.572	-13.297	282.08	1553.9	94.357	230.6	1131.1	26.324	203.81	964.27	-25.71	234.52	1031.3	-206.24	256.1	326.79	52.87	244.27	791.12	-238.14	205.85	247.44	119.35	39.826	51.131	43.873	112.65	88.985	11.835	212.24	244.7	48.315	285.41	26.378	83.843	241.42	36.878	46.161	168.68	163.42	43.361	506.69	826.74	209.16	227.82	1016.9	-135.82	278.52	1558.9	-34.469	319.99	1006.9	200.41	193.38	22.086	130.41	92.128	76.828	91.435	510.54	27.205	-27.19
453	2.265	461.76	1569.9	57.667	395.29	1336.5	12.555	472.48	1114.2	13.349	419.03	936.96	-116.62	426.94	941.39	158.82	352.88	1348.7	188.46	362.26	1138.3	251.79	363.58	1030.3	276.37	464.59	913.5	259.96	475.26	800.86	267.16	322.69	1350.9	-153.06	273	1146.8	-196.8	284.54	906.5	-229.13	293.09	745.68	-238.18	322.21	737.99	193.86	376.7	650.42	138.98	424.37	559.53	-129.68	455.83	668.42	-108.69	392.41	642.27	-144.95	453.05	459.53	-113.74	522.84	378.01	-44.944	560.72	194.04	-48.74	543.66	284.84	-50.944	550.32	70.165	-89.328	703.27	88.291	-71.489	733.48	96.075	-101.09	301.65	555.09	148.77	359.33	733.3	-155.32	455.48	1566.9	-15.096	271.97	1416.5	24.297	533	781.42	254.36	311.32	646.18	168.81	306.08	788.83	-196.59	276.34	450.79	132.67	505.9	279.92	-112.58	231.31	1310.1	124.22	213.51	974.67	87.883	664.55	54.198	-127.66	573.12	92.951	-13.478	287.37	1553	93.748	235.93	1130.4	25.701	209.21	963.4	-26.404	238.77	1030.6	-206.23	258.13	326.32	52.911	247.03	790.37	-238.01	207.21	247.39	119.37	39.989	52.084	43.971	113.04	89.509	11.929	213.67	244.55	48.352	285.43	26.347	83.853	241.45	36.815	46.14	169.55	163.55	43.43	513.2	826.53	208.7	232.22	1016.3	-135.81	283.82	1557.9	-35.133	325.53	1005.9	200.22	193.39	22.092	130.36	92.4	77.476	91.491	522.76	26.648	-27.845
454	2.27	467.05	1569.3	57.087	400.78	1335.6	12.066	477.81	1113.2	13.003	424.61	935.85	-116.6	431.92	940.66	158.84	358.26	1347.8	187.95	367.78	1137.6	251.41	369.35	1029.6	276.11	470.72	913.07	259.59	481.77	800.47	266.73	328.29	1349.9	-153.6	277.86	1146	-197.08	288.06	905.56	-229.19	295.61	744.63	-238.1	326.69	737.37	193.68	380.61	649.51	138.55	428.66	558.09	-129.59	460.36	666.94	-108.72	396.95	640.89	-145.08	458.03	458.43	-113.69	528.82	377.8	-44.621	569.7	194.35	-48.756	551.22	284.93	-50.79	561.53	70.341	-89.641	714.21	90.452	-70.847	744.59	98.819	-100.08	305.24	554.54	148.71	364.11	731.97	-155.7	460.8	1566.2	-15.676	277.46	1415.7	23.721	539.61	781.29	253.91	315.41	645.64	168.73	309	787.76	-196.63	279.2	450.36	132.59	513.8	279.57	-112.63	236.68	1309.4	123.65	218.72	973.88	87.161	676.43	55.853	-127.31	583.55	93.3	-13.611	292.68	1552.1	93.116	241.29	1129.6	25.052	214.63	962.52	-27.12	243.06	1029.9	-206.26	260.16	325.86	52.951	249.86	789.63	-237.89	208.58	247.38	119.41	40.162	53.08	44.076	113.45	90.066	12.041	215.11	244.41	48.396	285.46	26.316	83.86	241.49	36.754	46.121	170.43	163.71	43.511	519.63	826.29	208.25	236.66	1015.7	-135.83	289.15	1557	-35.818	331.17	1004.9	200	193.41	22.096	130.32	92.689	78.16	91.557	534.23	26.177	-28.458
455	2.275	472.36	1568.6	56.483	406.31	1334.7	11.543	483.18	1112.2	12.631	430.24	934.76	-116.59	436.94	939.94	158.84	363.69	1347	187.41	373.32	1136.8	251	375.1	1028.8	275.82	476.79	912.61	259.22	488.19	800.05	266.3	333.92	1348.9	-154.17	282.76	1145.1	-197.39	291.64	904.62	-229.27	298.19	743.59	-238.03	331.2	736.75	193.5	384.55	648.59	138.14	433.17	556.76	-129.5	465.05	665.58	-108.76	401.66	639.6	-145.22	463.16	457.41	-113.64	534.75	377.55	-44.292	578.23	194.59	-48.727	558.52	284.96	-50.61	572.04	70.503	-89.902	724.43	92.342	-70.167	755	101.22	-99.051	308.87	554	148.65	369.02	730.72	-156.1	466.14	1565.4	-16.278	282.98	1414.9	23.117	546.13	781.11	253.46	319.52	645.09	168.64	311.99	786.71	-196.67	282.08	449.95	132.52	521.46	279.24	-112.65	242.08	1308.6	123.05	223.96	973.09	86.422	687.55	57.281	-126.91	593.32	93.588	-13.686	298	1551.2	92.462	246.69	1128.8	24.378	220.09	961.66	-27.855	247.39	1029.2	-206.33	262.21	325.42	52.992	252.74	788.9	-237.78	209.96	247.39	119.45	40.345	54.12	44.19	113.87	90.659	12.172	216.57	244.3	48.45	285.49	26.288	83.864	241.52	36.698	46.107	171.32	163.9	43.604	525.98	826	207.81	241.12	1015.1	-135.89	294.49	1556	-36.526	336.94	1003.8	199.76	193.43	22.097	130.26	92.996	78.882	91.635	544.91	25.765	-29.006
456	2.28	477.69	1567.9	55.856	411.85	1333.8	10.985	488.58	1111.3	12.233	435.93	933.7	-116.59	442.01	939.22	158.83	369.14	1346.1	186.83	378.88	1136.1	250.56	380.81	1028.1	275.52	482.81	912.13	258.85	494.53	799.6	265.87	339.56	1348	-154.77	287.69	1144.3	-197.75	295.27	903.68	-229.37	300.85	742.57	-237.97	335.74	736.14	193.31	388.53	647.69	137.74	437.91	555.56	-129.42	469.9	664.36	-108.79	406.57	638.41	-145.36	468.45	456.48	-113.59	540.65	377.25	-43.965	586.31	194.73	-48.649	565.57	284.92	-50.404	581.81	70.617	-90.098	733.92	93.908	-69.455	764.69	103.21	-98.007	312.51	553.47	148.59	374.08	729.55	-156.52	471.5	1564.7	-16.904	288.53	1414.1	22.483	552.54	780.89	253.03	323.65	644.54	168.55	315.04	785.67	-196.73	285	449.55	132.44	528.87	278.9	-112.64	247.52	1307.9	122.43	229.25	972.3	85.669	697.89	58.431	-126.45	602.41	93.787	-13.697	303.35	1550.3	91.786	252.12	1128	23.684	225.57	960.81	-28.604	251.77	1028.5	-206.43	264.29	324.99	53.035	255.7	788.18	-237.7	211.36	247.43	119.5	40.536	55.212	44.316	114.31	91.292	12.323	218.06	244.21	48.515	285.51	26.26	83.866	241.57	36.647	46.098	172.23	164.11	43.713	532.24	825.68	207.37	245.62	1014.5	-135.99	299.86	1555.1	-37.253	342.84	1002.8	199.49	193.45	22.095	130.21	93.32	79.646	91.727	554.79	25.389	-29.466
457	2.285	483.04	1567.2	55.205	417.42	1332.9	10.391	494.01	1110.4	11.808	441.66	932.69	-116.62	447.13	938.51	158.79	374.63	1345.3	186.21	384.46	1135.4	250.09	386.49	1027.4	275.2	488.76	911.63	258.48	500.77	799.13	265.45	345.22	1347	-155.4	292.67	1143.5	-198.14	298.96	902.76	-229.48	303.58	741.57	-237.91	340.32	735.54	193.11	392.54	646.79	137.36	442.91	554.49	-129.35	474.94	663.29	-108.81	411.69	637.35	-145.52	473.89	455.63	-113.55	546.52	376.89	-43.642	593.94	194.77	-48.519	572.37	284.78	-50.174	590.84	70.653	-90.222	742.69	95.103	-68.714	773.66	104.74	-96.962	316.18	552.95	148.53	379.29	728.49	-156.94	476.88	1564	-17.553	294.09	1413.3	21.821	558.86	780.63	252.61	327.79	644	168.45	318.15	784.65	-196.79	287.94	449.17	132.36	536.03	278.55	-112.61	252.99	1307.1	121.78	234.57	971.52	84.907	707.44	59.257	-125.94	610.83	93.872	-13.638	308.72	1549.4	91.089	257.6	1127.2	22.971	231.09	959.98	-29.363	256.2	1027.8	-206.56	266.39	324.58	53.082	258.73	787.46	-237.63	212.78	247.5	119.57	40.738	56.359	44.457	114.76	91.968	12.493	219.56	244.15	48.594	285.54	26.235	83.866	241.61	36.603	46.094	173.17	164.35	43.84	538.42	825.33	206.95	250.15	1014	-136.12	305.25	1554.1	-37.998	348.89	1001.7	199.2	193.47	22.089	130.16	93.662	80.455	91.837	563.84	25.03	-29.824
458	2.29	488.4	1566.6	54.53	423.02	1332	9.7609	499.47	1109.5	11.356	447.43	931.71	-116.68	452.29	937.79	158.73	380.14	1344.4	185.56	390.05	1134.7	249.59	392.13	1026.7	274.85	494.64	911.11	258.12	506.91	798.65	265.03	350.9	1346.1	-156.07	297.68	1142.6	-198.57	302.72	901.85	-229.62	306.39	740.59	-237.86	344.92	734.94	192.9	396.59	645.89	136.99	448.15	553.56	-129.29	480.18	662.37	-108.83	417.02	636.42	-145.68	479.49	454.87	-113.52	552.36	376.47	-43.328	601.12	194.68	-48.334	578.91	284.55	-49.92	599.12	70.585	-90.269	750.73	95.885	-67.946	781.92	105.76	-95.92	319.89	552.44	148.47	384.69	727.55	-157.36	482.28	1563.3	-18.226	299.68	1412.5	21.129	565.06	780.33	252.21	331.96	643.45	168.35	321.34	783.64	-196.86	290.92	448.8	132.28	542.93	278.16	-112.55	258.49	1306.4	121.1	239.94	970.76	84.137	716.18	59.723	-125.38	618.58	93.825	-13.506	314.1	1548.6	90.371	263.13	1126.4	22.244	236.63	959.18	-30.127	260.68	1027.1	-206.73	268.52	324.19	53.137	261.82	786.76	-237.58	214.23	247.61	119.65	40.952	57.567	44.617	115.23	92.689	12.685	221.09	244.12	48.689	285.58	26.211	83.864	241.66	36.567	46.098	174.13	164.63	43.989	544.51	824.96	206.54	254.72	1013.4	-136.28	310.65	1553.2	-38.761	355.08	1000.6	198.88	193.5	22.079	130.1	94.021	81.314	91.965	572.07	24.672	-30.071
